<svg width="87" height="88" viewBox="0 0 87 88" fill="none" xmlns="http://www.w3.org/2000/svg">
<g clip-path="url(#clip0)">
<path d="M82.3932 24.9172C79.4832 19.0977 75.3695 15.8925 70.8093 15.8925H38.2108C25.5998 15.8925 14.9022 24.2388 11.3496 35.6971C9.44447 34.3145 6.75777 33.4455 3.10497 33.4455C1.42651 33.4455 0.0654297 34.8066 0.0654297 36.4851V51.5305C0.0654297 53.2089 1.42651 54.57 3.10497 54.57C6.75777 54.57 9.44476 53.701 11.3496 52.3187C14.9022 63.777 25.5998 72.1231 38.2108 72.1231H70.809C75.3692 72.1231 79.4832 68.9182 82.3929 63.0983C84.968 57.9482 86.3863 51.1683 86.3863 44.0078C86.3863 36.8472 84.968 30.0674 82.3932 24.9172ZM6.14422 48.1613V39.8542C8.6638 40.4718 10.0958 41.93 10.0958 44.0078C10.0958 46.0859 8.6638 47.5437 6.14422 48.1613ZM20.0038 56.6888C21.0167 56.9414 22.0752 57.0777 23.1654 57.0777C24.8439 57.0777 26.205 55.7166 26.205 54.0381C26.205 52.3597 24.8439 50.9986 23.1654 50.9986C19.3106 50.9986 16.1746 47.8629 16.1746 44.0078C16.1746 40.153 19.3106 37.0169 23.1654 37.0169C24.8439 37.0169 26.205 35.6559 26.205 33.9774C26.205 32.2989 24.8439 30.9379 23.1654 30.9379C22.0752 30.9379 21.0167 31.0742 20.0038 31.3267C24.0853 25.674 30.7785 21.9715 38.2111 21.9715H60.9516C60.3386 22.8624 59.7611 23.845 59.2252 24.9172C56.6504 30.0674 55.232 36.8472 55.232 44.0078C55.232 51.1683 56.6504 57.9482 59.2252 63.0983C59.7614 64.1705 60.3386 65.1529 60.9516 66.044H38.2111C30.7785 66.0437 24.0853 62.3415 20.0038 56.6888ZM70.809 66.0437C66.325 66.0437 61.3105 56.6199 61.3105 44.0078C61.3105 31.3956 66.325 21.9718 70.809 21.9718C75.2928 21.9718 80.3075 31.3956 80.3075 44.0078C80.3075 56.6199 75.2928 66.0437 70.809 66.0437Z" fill="white"/>
<path d="M71.1668 31.8287C70.6015 32.394 70.2766 33.1784 70.2766 33.9777C70.2766 34.7773 70.6015 35.5611 71.1668 36.1264C71.7321 36.6917 72.5166 37.0172 73.3159 37.0172C74.1151 37.0172 74.8996 36.692 75.4649 36.1264C76.0331 35.5611 76.3554 34.777 76.3554 33.9777C76.3554 33.1784 76.0331 32.3943 75.4649 31.8287C74.8999 31.2634 74.1151 30.9382 73.3159 30.9382C72.5166 30.9382 71.7353 31.2631 71.1668 31.8287Z" fill="white"/>
<path d="M73.3154 50.9986C72.5161 50.9986 71.732 51.3235 71.1664 51.8891C70.6011 52.4544 70.2761 53.2386 70.2761 54.0378C70.2761 54.8371 70.6011 55.6213 71.1664 56.1866C71.7317 56.7522 72.5161 57.0774 73.3154 57.0774C74.1146 57.0774 74.8991 56.7522 75.4644 56.1866C76.0326 55.6216 76.3549 54.8371 76.3549 54.0378C76.3549 53.2386 76.0326 52.4544 75.4644 51.8891C74.8994 51.3235 74.1146 50.9986 73.3154 50.9986Z" fill="white"/>
<path d="M71.3401 44.0078C71.3401 43.2085 71.0178 42.4244 70.4493 41.8588C69.8842 41.2932 69.103 40.9683 68.3005 40.9683C67.5013 40.9683 66.7171 41.2932 66.1515 41.8588C65.5859 42.4241 65.261 43.2085 65.261 44.0078C65.261 44.8071 65.5859 45.5912 66.1515 46.1565C66.7168 46.7221 67.5013 47.0473 68.3005 47.0473C69.103 47.0473 69.884 46.7221 70.4493 46.1565C71.0178 45.5912 71.3401 44.8071 71.3401 44.0078Z" fill="white"/>
</g>
<defs>
<clipPath id="clip0">
<rect width="86.3209" height="86.3209" fill="white" transform="translate(0.0654297 0.847351)"/>
</clipPath>
</defs>
</svg>
