<svg width="67" height="68" viewBox="0 0 67 68" fill="none" xmlns="http://www.w3.org/2000/svg">
<g clip-path="url(#clip0)">
<path d="M65.528 18.5737L34.6911 3.15533C34.0337 2.82628 33.2594 2.82628 32.6017 3.15533L1.76503 18.5737C0.973572 18.9695 0.473633 19.7782 0.473633 20.6632V63.0638C0.473633 64.3539 1.51953 65.4 2.80981 65.4H10.5191C11.8092 65.4 12.8553 64.3541 12.8553 63.0638V26.854H54.4382V63.0638C54.4382 64.3539 55.4841 65.4 56.7744 65.4H64.4837C65.7738 65.4 66.8199 64.3541 66.8199 63.0638V20.6632C66.8194 19.7782 66.3195 18.9695 65.528 18.5737ZM62.1473 60.7276H59.1104V24.5178C59.1104 23.2277 58.0645 22.1816 56.7742 22.1816H10.5189C9.22882 22.1816 8.1827 23.2275 8.1827 24.5178V60.7276H5.14576V22.107L33.6465 7.85672L62.1473 22.107V60.7276Z" fill="white"/>
<path d="M49.0647 30.5917H33.6463C32.7432 30.5917 32.0111 31.3237 32.0111 32.2269V46.01H18.228C17.3248 46.01 16.5928 46.7421 16.5928 47.6452V63.0636C16.5928 63.9667 17.3248 64.6988 18.228 64.6988H49.0647C49.9678 64.6988 50.6999 63.9667 50.6999 63.0636V32.2271C50.7001 31.3237 49.9678 30.5917 49.0647 30.5917ZM35.2815 51.5936L39.0427 55.3547L35.2815 59.1159V51.5936ZM32.0111 59.1157L28.25 55.3545L32.0111 51.5934V59.1157ZM37.5945 49.2806H45.1165L41.3554 53.0418L37.5945 49.2806ZM37.5945 46.01L41.3556 42.2489L45.1168 46.01H37.5945ZM47.4295 43.6973L43.6686 39.9362L47.4295 36.175V43.6973ZM41.3556 37.6234L37.5945 33.8623H45.1165L41.3556 37.6234ZM39.0427 39.9362L35.2815 43.6973V36.1752L39.0427 39.9362ZM25.937 53.0418L22.1759 49.2806H29.698L25.937 53.0418ZM23.6243 55.3545L19.8632 59.1157V51.5936L23.6243 55.3545ZM25.937 57.6675L29.6982 61.4286H22.1761L25.937 57.6675ZM41.3554 57.6675L45.1165 61.4286H37.5945L41.3554 57.6675ZM43.6683 55.3545L47.4295 51.5934V59.1155L43.6683 55.3545Z" fill="white"/>
</g>
<defs>
<clipPath id="clip0">
<rect width="66.3458" height="66.3458" fill="white" transform="translate(0.473633 0.981323)"/>
</clipPath>
</defs>
</svg>
