<svg width="88" height="66" viewBox="0 0 88 66" fill="none" xmlns="http://www.w3.org/2000/svg">
<path d="M0 65.4587H87.3615V0H0V65.4587ZM5.93255 6.29789H81.429V59.1609H5.93255V6.29789Z" fill="white"/>
<path d="M9.59644 55.6404H38.5278V33.2063H9.59644V55.6404ZM15.529 39.5042H32.5953V49.3426H15.529V39.5042Z" fill="white"/>
<path d="M24.0622 30.9068C29.7732 30.9068 34.4194 25.9744 34.4194 19.9117C34.4194 13.8491 29.7733 8.91675 24.0622 8.91675C18.3514 8.91675 13.7051 13.8491 13.7051 19.9117C13.7051 25.9744 18.3514 30.9068 24.0622 30.9068ZM24.0622 15.2146C26.502 15.2146 28.4869 17.3217 28.4869 19.9117C28.4869 22.5017 26.502 24.6089 24.0622 24.6089C21.6226 24.6089 19.6376 22.5017 19.6376 19.9117C19.6376 17.3217 21.6226 15.2146 24.0622 15.2146Z" fill="white"/>
<path d="M76.8593 43.8794H45.3728V50.1773H76.8593V43.8794Z" fill="white"/>
<path d="M76.8593 29.5996H45.3728V35.8975H76.8593V29.5996Z" fill="white"/>
<path d="M76.8593 15.3197H45.3728V21.6176H76.8593V15.3197Z" fill="white"/>
</svg>
