<svg width="73" height="73" viewBox="0 0 73 73" fill="none" xmlns="http://www.w3.org/2000/svg">
<g clip-path="url(#clip0)">
<path d="M54.7796 47.6645C52.4256 45.3405 49.4869 45.3405 47.1479 47.6645C45.3637 49.4337 43.5794 51.2029 41.8252 53.0022C41.3454 53.4969 40.9406 53.6019 40.3558 53.272C39.2013 52.6423 37.9719 52.1325 36.8623 51.4428C31.6896 48.1892 27.3564 44.006 23.5181 39.2981C21.6139 36.9591 19.9196 34.4551 18.7351 31.6364C18.4952 31.0666 18.5402 30.6918 19.005 30.227C20.7893 28.5027 22.5285 26.7335 24.2828 24.9642C26.7267 22.5053 26.7267 19.6265 24.2678 17.1526C22.8734 15.7432 21.479 14.3638 20.0846 12.9544C18.6452 11.515 17.2208 10.0607 15.7664 8.63627C13.4124 6.34226 10.4737 6.34226 8.13471 8.65127C6.33549 10.4205 4.61123 12.2347 2.78202 13.974C1.08775 15.5783 0.233116 17.5424 0.0531934 19.8364C-0.231684 23.5698 0.682922 27.0933 1.97237 30.5268C4.61123 37.6338 8.6295 43.9461 13.5024 49.7336C20.0846 57.5602 27.9412 63.7525 37.1322 68.2206C41.2704 70.2297 45.5586 71.7741 50.2216 72.029C53.4302 72.2089 56.219 71.3992 58.453 68.8953C59.9824 67.186 61.7066 65.6267 63.3259 63.9924C65.7249 61.5635 65.7399 58.6247 63.3559 56.2258C60.5071 53.362 57.6434 50.5132 54.7796 47.6645Z" fill="white"/>
<path d="M51.9161 35.7146L57.4487 34.77C56.5791 29.6872 54.1801 25.0842 50.5367 21.4257C46.6833 17.5724 41.8104 15.1434 36.4427 14.3938L35.6631 19.9564C39.8163 20.5411 43.5947 22.4153 46.5784 25.399C49.3972 28.2178 51.2414 31.7863 51.9161 35.7146Z" fill="white"/>
<path d="M60.5673 11.665C54.1801 5.27773 46.0985 1.24446 37.1774 0L36.3977 5.5626C44.1044 6.64214 51.0914 10.1356 56.609 15.6383C61.8417 20.871 65.2753 27.4832 66.5197 34.755L72.0524 33.8104C70.598 25.3841 66.6247 17.7374 60.5673 11.665Z" fill="white"/>
</g>
<defs>
<clipPath id="clip0">
<rect width="72.053" height="72.053" fill="white"/>
</clipPath>
</defs>
</svg>
