<svg width="283" height="283" viewBox="0 0 283 283" fill="none" xmlns="http://www.w3.org/2000/svg">
<path d="M125.126 252.789C126.056 257.036 122.537 261.414 117.266 262.568C111.995 263.721 106.969 261.213 106.039 256.966C105.109 252.719 108.629 248.34 113.899 247.187C119.17 246.033 124.196 248.541 125.126 252.789ZM157.547 252.789C156.617 257.038 160.136 261.417 165.407 262.571C170.677 263.724 175.704 261.215 176.634 256.966C177.563 252.717 174.044 248.337 168.774 247.184C163.503 246.03 158.477 248.54 157.547 252.789ZM261.503 86.5883C255.478 98.7178 246.58 107.49 235.064 112.663C228.891 115.434 222.955 116.668 218.331 117.192C219.042 125.403 219.099 135.192 218.437 144.399C217.643 155.469 215.446 171.044 209.496 182.397C198.994 202.442 195.59 215.89 194.585 223.641C193.889 229.013 194.267 232.135 194.441 233.147C196.945 237.51 205.353 254.444 196.008 271.045C191.969 278.221 187.517 283 178.917 283C176.118 283 173.145 282.521 169.377 281.914C163.129 280.905 154.569 279.527 141.5 279.527C128.428 279.527 119.868 280.908 113.62 281.914C109.853 282.521 106.879 283 104.081 283C95.4807 283 91.0286 278.221 86.9892 271.045C77.69 254.526 85.9695 237.681 88.5191 233.215C88.5191 233.204 88.522 233.19 88.5249 233.175L88.4847 233.149C88.5021 233.126 88.522 233.095 88.5419 233.066C89.0747 229.803 90.2605 214.382 73.4987 182.4C67.5457 171.041 65.3514 155.462 64.5576 144.393C63.8989 135.2 63.9561 125.425 64.6636 117.221C60.0397 116.713 54.0441 115.482 47.7987 112.654C36.3685 107.48 27.5189 98.7112 21.4972 86.5903C14.5385 72.5844 12.9718 56.625 16.9593 40.4358C19.9416 28.3344 25.0152 20.262 25.2301 19.9242L37.8867 0L38.0987 23.6C38.2536 41.6593 44.5618 54.7055 56.8487 62.3747C66.8125 68.5939 78.3405 69.9491 84.6942 70.1784L119.997 64.8813C127.093 63.8184 134.327 63.2769 141.503 63.2769C148.676 63.2769 155.912 63.8155 163.009 64.8813L198.343 70.1838C204.685 69.9491 216.187 68.5794 226.157 62.337C238.424 54.6538 244.735 41.6163 244.91 23.5909L245.139 0.0368491L257.77 19.9213C257.985 20.2591 263.058 28.3324 266.041 40.4329C270.028 56.6229 268.461 72.5827 261.503 86.5883ZM101.462 217.001C102.476 215.967 103.493 214.99 104.496 214.122C104.301 208.455 103.731 196.589 102.109 183.944C100.929 174.751 99.3908 166.747 97.5831 160.235C95.2281 161.567 92.4868 162.278 89.536 162.278C86.5164 162.278 83.4944 161.533 80.6926 160.135C81.9989 166.509 83.7494 171.898 85.8577 175.923C93.9334 191.333 99.1701 205.121 101.462 217.001ZM89.3182 143.016L89.324 143.01C89.1319 142.812 88.9344 142.617 88.7195 142.434C87.3987 141.302 85.7831 140.626 84.4023 140.626C84.1531 140.626 83.3196 140.655 82.9785 141.056C82.4543 141.666 82.586 144.261 85.2188 146.516C86.5425 147.647 88.1552 148.324 89.536 148.324C89.7852 148.324 90.6162 148.292 90.9598 147.894C91.2149 147.595 91.2807 146.986 91.1374 146.255C90.9255 145.175 90.304 144.06 89.4014 143.095C89.3728 143.073 89.3443 143.041 89.3182 143.016ZM202.337 159.987C199.452 161.479 196.324 162.281 193.195 162.281C190.244 162.281 187.506 161.57 185.148 160.238C183.34 166.75 181.799 174.751 180.622 183.944C179 196.589 178.427 208.455 178.235 214.122C179.317 215.062 180.42 216.122 181.515 217.253C183.397 207.381 187.771 193.796 197.139 175.923C199.269 171.864 201.028 166.424 202.337 159.987ZM193.416 143.019C193.39 143.044 193.361 143.073 193.333 143.099C192.43 144.065 191.808 145.178 191.597 146.259C191.454 146.986 191.519 147.6 191.774 147.898C192.118 148.296 192.952 148.327 193.198 148.327C194.582 148.327 196.194 147.651 197.515 146.52C200.148 144.265 200.28 141.67 199.756 141.059C199.412 140.661 198.578 140.63 198.332 140.63C196.948 140.63 195.336 141.305 194.015 142.437C193.8 142.621 193.602 142.815 193.41 143.014L193.416 143.019ZM253.768 50.4518C253.02 52.2251 252.187 53.9354 251.275 55.5796C247.05 63.197 241.089 69.451 233.557 74.1689C220.462 82.3709 205.737 83.9463 198.122 84.1554L197.506 84.1728L160.935 78.6868C154.521 77.7242 147.981 77.2373 141.497 77.2373C135.012 77.2373 128.474 77.7242 122.06 78.6868L85.5281 84.167L84.9149 84.1496C77.2888 83.9463 62.5438 82.385 49.4549 74.2144C41.9062 69.5019 35.9358 63.2479 31.7077 55.6222C30.7968 53.9806 29.9687 52.2731 29.221 50.5056C27.8058 61.128 29.4015 71.1547 33.9878 80.3852C44.3983 101.341 62.988 103.604 70.4966 103.604C71.0725 103.604 71.6194 103.593 72.1208 103.564L80.8238 103.083L79.3859 111.68C78.6468 116.092 78.2055 121.801 78.0854 127.889C80.0165 127.101 82.1475 126.683 84.4023 126.683C89.1522 126.683 93.9078 128.516 97.7951 131.845C98.2936 132.272 98.7689 132.722 99.2248 133.186C107.241 140.846 112.721 156.932 115.961 182.299C118.296 200.571 118.528 216.742 118.536 217.422L118.588 221.424L115.159 223.486C103.433 230.539 91.7221 251.013 99.1478 264.203C101.878 269.053 102.66 269.053 104.084 269.053C105.766 269.053 108.255 268.652 111.403 268.145C117.74 267.123 127.314 265.581 141.501 265.581C155.687 265.581 165.261 267.125 171.598 268.145C174.749 268.652 177.236 269.053 178.92 269.053C180.344 269.053 181.126 269.053 183.856 264.203C191.465 250.687 179.431 230.614 167.579 223.486C167.576 223.486 164.147 221.424 164.147 221.424L164.199 217.422C164.205 216.742 164.439 200.571 166.771 182.299C170.009 156.929 175.489 140.846 183.507 133.186C183.963 132.722 184.439 132.272 184.937 131.845C188.824 128.516 193.58 126.683 198.33 126.683C200.688 126.683 202.914 127.135 204.916 127.998C204.798 121.873 204.357 116.129 203.615 111.692L202.192 103.189L210.803 103.573C211.247 103.593 211.717 103.601 212.207 103.601C219.805 103.601 238.6 101.338 249.011 80.3881C253.602 71.1386 255.195 61.0949 253.768 50.4518ZM112.95 88.1297L115.666 101.812C115.927 101.76 142.154 96.7011 167.303 101.806L170.076 88.1355C142.111 82.4603 114.127 87.8979 112.95 88.1297Z" fill="#8D0047"/>
</svg>
