<svg width="132" height="132" viewBox="0 0 132 132" fill="none" xmlns="http://www.w3.org/2000/svg">
<g clip-path="url(#clip0)" filter="url(#filter0_d)">
<path d="M98.2734 82.0284C94.2223 78.0289 89.1648 78.0289 85.1395 82.0284C82.0689 85.0732 78.9984 88.118 75.9794 91.2144C75.1537 92.0659 74.457 92.2465 73.4507 91.6788C71.4638 90.5951 69.3479 89.7178 67.4385 88.5308C58.5364 82.9315 51.0793 75.7324 44.4736 67.6302C41.1966 63.6049 38.2808 59.2958 36.2424 54.4448C35.8295 53.4642 35.907 52.8192 36.7069 52.0193C39.7774 49.0519 42.7706 46.0071 45.7896 42.9623C49.9955 38.7306 49.9955 33.7764 45.7638 29.5188C43.3641 27.0933 40.9644 24.7194 38.5647 22.2939C36.0876 19.8168 33.6363 17.3139 31.1334 14.8626C27.0822 10.9147 22.0248 10.9147 17.9995 14.8884C14.9031 17.9332 11.9358 21.0554 8.78776 24.0486C5.87199 26.8095 4.40121 30.1897 4.09157 34.1376C3.60131 40.5626 5.17531 46.6264 7.39439 52.5353C11.9358 64.7661 18.851 75.6292 27.2371 85.5893C38.5647 99.0585 52.0856 109.715 67.903 117.405C75.0247 120.862 82.4044 123.52 90.4292 123.959C95.9511 124.268 100.75 122.875 104.595 118.566C107.227 115.624 110.194 112.941 112.981 110.128C117.11 105.948 117.136 100.891 113.033 96.762C108.13 91.8336 103.202 86.931 98.2734 82.0284Z" fill="#8D0047"/>
<path d="M93.3452 61.4633L102.867 59.8377C101.37 51.0904 97.2415 43.1688 90.9713 36.8728C84.3399 30.2414 75.9538 26.0613 66.7163 24.7711L65.3745 34.3441C72.522 35.3504 79.0244 38.5758 84.1593 43.7107C89.0103 48.5617 92.1841 54.7029 93.3452 61.4633Z" fill="#8D0047"/>
<path d="M108.233 20.0749C97.2413 9.08274 83.3334 2.14167 67.9804 0L66.6387 9.573C79.9015 11.4308 91.9258 17.443 101.421 26.9128C110.427 35.9181 116.336 47.2973 118.477 59.8119L127.999 58.1863C125.496 43.6849 118.658 30.5252 108.233 20.0749Z" fill="#8D0047"/>
</g>
<defs>
<filter id="filter0_d" x="0" y="0" width="132" height="132" filterUnits="userSpaceOnUse" color-interpolation-filters="sRGB">
<feFlood flood-opacity="0" result="BackgroundImageFix"/>
<feColorMatrix in="SourceAlpha" type="matrix" values="0 0 0 0 0 0 0 0 0 0 0 0 0 0 0 0 0 0 127 0"/>
<feOffset dy="4"/>
<feGaussianBlur stdDeviation="2"/>
<feColorMatrix type="matrix" values="0 0 0 0 0 0 0 0 0 0 0 0 0 0 0 0 0 0 0.25 0"/>
<feBlend mode="normal" in2="BackgroundImageFix" result="effect1_dropShadow"/>
<feBlend mode="normal" in="SourceGraphic" in2="effect1_dropShadow" result="shape"/>
</filter>
<clipPath id="clip0">
<rect width="124" height="124" fill="white" transform="translate(4)"/>
</clipPath>
</defs>
</svg>
